# xmcd CD database file
#
# Track frame offsets:
#	150
#	13595
#	28155
#	41892
#	53100
#	65895
#	78730
#	92010
#	102967
#	118812
#	130437
#	142172
#	156147
#	168122
#	182725
#	195580
#	209015
#	226745
#	239405
#	251610
#	267652
#	279735
#	291820
#	303537
#
# Disc length: 4207 seconds
#
# Revision: 1
# Processed by: cddbd v1.5.2PL0 Copyright (c) Steve Scherf et al.
# Submitted via: CDex 1.85
#
DISCID=74106d18
DTITLE=Gorni Kramer, The Three Niggers of Broadway, Tre Italiani in America, William Righi e li suo Nuovo stile - Jazz in Italy in the 30's and 40's (2)
DYEAR=1900
DGENRE=Jazz
TTITLE0=China Boy (3 Nigg)
TTITLE1=Te per Due (G Kr)
TTITLE2=Addio Tristezza (G Kr)
TTITLE3=Io so che tu sai (G Kr)
TTITLE4=Dolce Susanna (G Kr)
TTITLE5=Honeysuckle Rose (G Kr)
TTITLE6=Nobody's Sweetheart (G Kr)
TTITLE7=Tiger Rag (G Kr)
TTITLE8=Body and Soul (G Kr)
TTITLE9=China Boy (G Kr)
TTITLE10=Cielo Azzurro (G Kr)
TTITLE11=Cieli Azzurri (G Kr)
TTITLE12=Addio Tristezza (G Kr)
TTITLE13=Polvere di Stelle (G Kr)
TTITLE14=Splendore (G Kr)
TTITLE15=Bai Bai Blu (3 It)
TTITLE16=The Blues in The Night (W R)
TTITLE17=The Jumpin' Jive (W R)
TTITLE18=The Jumpin' Jive (W R)
TTITLE19=Thrugh for The Night (W R)
TTITLE20=Special Delivery Stomp (W R)
TTITLE21=Special Delivery Stomp (W R)
TTITLE22=Good Enough to Keep
TTITLE23=Sweet Georgia Brown
EXTD=
EXTT0=
EXTT1=
EXTT2=
EXTT3=
EXTT4=
EXTT5=
EXTT6=
EXTT7=
EXTT8=
EXTT9=
EXTT10=
EXTT11=
EXTT12=
EXTT13=
EXTT14=
EXTT15=
EXTT16=
EXTT17=
EXTT18=
EXTT19=
EXTT20=
EXTT21=
EXTT22=
EXTT23=
PLAYORDER=
